<svg xmlns="http://www.w3.org/2000/svg" viewBox="0 0 352.32 235.43"><defs><style>.cls-1{fill:none;stroke:#fff;stroke-miterlimit:10;}</style></defs><g id="Layer_2" data-name="Layer 2"><path class="cls-1" d="M175.32,78.61c-5.4,6.21-17.61,15.48-29.36-10.71L131.56,43s-11-19.24-23-5.34L94.06,61.27s2.86,10.89,15.07-.34L101,71.58s4.94,5.34,13.41-3.7c0,0,6.49-9.26,8.14-15.4,0,0,4.95-4.17,8.14,3.59,0,0,3.29,21,28.79,35.59"/><path class="cls-1" d="M159.12,91.22s-6.54,23.87-30.08,8.9L104,87.74s-19.25-9.63-22,8.94l.29,28.15s8.1,7.41,12.38-9.06l-1.2,13.62s6.92,1.56,9.24-10.9c0,0,.55-11.5-1.3-17.58,0,0,1.94-6.36,8.67-1.75,0,0,14.81,23.31,43.73,20.62,0,0,21.83,20.78,21.12,30.42,0,0-.7,17.81-20.41,3l-9.16-9.64v8.16s16.9,21.51,33.8,16.32c0,0,9.85,0,10.56-14.84l9.15,2.23s2.47,23.37-20.77,27.82l3.52,7.42s8.1-1.12,22.18-10c0,0,12-9.64,15.49-23.74,0,0,6.34,60.84-45.06,60.09,0,0-60.2,5.57-85.9-57.12,0,0,34.5,77.16,98.57,72.71,0,0,50-4.46,57-74.94,0,0-.7-35.61,6.34-.74,0,0,6.34,51.93-28.87,69,0,0,58.44-24.49,49.29-94.23,0,0-7.75-33.38-23.94-40.06,0,0-8.45,14.84-17.6,17.81A82.35,82.35,0,0,0,220,98.27s9.16-8.9,7.75-19.29c0,0,18.3-3,25.34-8.16,0,0,54.92,84.58,2.12,141.7,0,0,59.14-45.25,43-129.09,0,0-19-77.16-96.46-37.1,0,0,14.08,26-4.23,32.65,0,0-24.64.74-18.3-27.45l3.52-28.94S185.52.34,167.92,3.3l-25.34,8.91s-4.23,10.38,12,9.64l-12.68,3s.71,7.42,12.68,5.93c0,0,10.56-3,15.48-6.67,0,0,6.34,0,4.23,8.16,0,0-9.86,18.55,1.41,46.74"/><path class="cls-1" d="M171.79,172.83s13.84,19.63,12.43,29.16c0,0-14.53-17.4-28.86-26.51"/><path class="cls-1" d="M143.32,126.47s5.18,28.34-.09,36.23c0,0-5.71-22.39-14.73-37.24"/><path class="cls-1" d="M174.61,185.44s-5.63-10.38-7.74-11.13"/><path class="cls-1" d="M140.88,136.89s-3.82-11.27-5.77-12.39"/><path class="cls-1" d="M152.78,22.22s-12,2.23-19.71,5.94c-1.58.75-7.74-1.49-2.82-6.68"/><path class="cls-1" d="M108.45,61.68s-8.51,9.14-12.76,16.91c-.87,1.58-7.12,3.53-6-3.71"/><path class="cls-1" d="M95,115.93s-3.51,12.26-3.86,21.22c-.07,1.83-4.75,6.62-6.93-.36"/></g></svg>