<svg xmlns="http://www.w3.org/2000/svg" viewBox="0 0 352.32 235.43"><defs><style>.cls-1{fill:none;stroke:#fff;stroke-miterlimit:10;}</style></defs><g id="Layer_2" data-name="Layer 2"><path class="cls-1" d="M115.65,222.58s-52.74-26.81-17.58-96.69c0,0,19.34-33.4,2.64-62,0,0,42.19-2.2,54.49,34.28,0,0,39.12-26.37,18-93.17,0,0,57.57,19.78,43.95,105.92,0,0,12.74-32.09,37.35-44.83,0,0-12.3,32.52,9.23,61.09,0,0,47.91,63.28-19.33,102.84,0,0,4.87-23.08,2.63-30.33-3-9.86-13.91-31.19-13.18-39.11.57-6.19,1.32-18,3.52-24.61,0,0-23.74,7.47-26.81,39.11,0,0-33-25.93-19.34-64.16,0,0-40.43,12.74-30.76,67.68,0,0-18.46-26.37-26.37-26.81,0,0,6.59,21.53-2.2,35.16C131.91,187,118.72,208.51,115.65,222.58Z"/></g></svg>