<svg xmlns="http://www.w3.org/2000/svg" viewBox="0 0 352.32 235.43"><defs><style>.cls-1{fill:none;stroke:#fff;stroke-miterlimit:10;}</style></defs><g id="Layer_2" data-name="Layer 2"><polygon class="cls-1" points="183.22 68.51 140.12 92.18 140.12 141.89 183.22 167.13 226.32 142.68 226.32 92.18 183.22 68.51"/><line class="cls-1" x1="183.22" y1="3.03" x2="183.22" y2="68.51"/><line class="cls-1" x1="83.45" y1="60.62" x2="140.12" y2="92.18"/><line class="cls-1" x1="83.45" y1="174.23" x2="140.12" y2="141.89"/><line class="cls-1" x1="183.22" y1="231.83" x2="183.22" y2="167.13"/><line class="cls-1" x1="282.98" y1="174.23" x2="226.32" y2="141.89"/><line class="cls-1" x1="282.98" y1="60.62" x2="226.32" y2="92.18"/><polyline class="cls-1" points="169.65 19.6 183.22 28.5 197.59 19.6"/><polyline class="cls-1" points="169.82 45.94 183.39 54.84 197.75 45.94"/><polyline class="cls-1" points="92.46 78.84 108.09 74.32 110.47 57.73"/><polyline class="cls-1" points="114.54 90.96 130.17 86.44 132.54 69.84"/><polyline class="cls-1" points="103.92 178.84 103.63 162.74 88.06 156.11"/><polyline class="cls-1" points="127.35 165.32 127.06 149.23 111.49 142.59"/><polyline class="cls-1" points="196.47 213.24 183.04 204.12 168.53 212.79"/><polyline class="cls-1" points="196.73 186.9 183.31 177.78 168.8 186.45"/><polyline class="cls-1" points="278.27 156.91 263.38 163.43 263.26 180.19"/><polyline class="cls-1" points="255.71 142.89 240.83 149.41 240.7 166.18"/><polyline class="cls-1" points="263.54 55.6 262.43 71.66 277.37 79.59"/><polyline class="cls-1" points="240.47 68.79 239.37 84.85 254.31 92.78"/><polygon class="cls-1" points="226.58 31.4 222.1 31.99 220.41 36.23 223.23 39.8 227.73 39.15 229.44 34.85 226.58 31.4"/><line class="cls-1" x1="228.8" y1="25.83" x2="226.58" y2="31.4"/><line class="cls-1" x1="218.34" y1="27.42" x2="222.1" y2="31.99"/><line class="cls-1" x1="214.49" y1="37.1" x2="220.41" y2="36.23"/><line class="cls-1" x1="221.03" y1="45.32" x2="223.23" y2="39.81"/><line class="cls-1" x1="231.49" y1="43.72" x2="227.76" y2="39.08"/><line class="cls-1" x1="235.34" y1="34.04" x2="229.44" y2="34.85"/><polyline class="cls-1" points="227.08 26.79 227.93 28 229.46 27.71"/><polyline class="cls-1" points="226.2 29.04 227.05 30.24 228.58 29.96"/><polyline class="cls-1" points="218.49 29.27 219.98 29.41 220.74 28.07"/><polyline class="cls-1" points="219.96 31.04 221.45 31.17 222.21 29.84"/><polyline class="cls-1" points="216.07 38.17 216.6 36.79 215.5 35.71"/><polyline class="cls-1" points="218.53 37.8 219.05 36.42 217.95 35.34"/><polyline class="cls-1" points="222.79 44.17 221.96 42.95 220.43 43.21"/><polyline class="cls-1" points="223.71 41.94 222.87 40.72 221.34 40.97"/><polyline class="cls-1" points="231.67 42.09 230.18 42.15 229.6 43.57"/><polyline class="cls-1" points="230.23 40.14 228.74 40.21 228.16 41.63"/><polyline class="cls-1" points="233.86 32.97 233.22 34.3 234.22 35.47"/><polyline class="cls-1" points="231.44 33.33 230.81 34.66 231.81 35.83"/><polygon class="cls-1" points="254.04 23.91 251.22 24.28 250.15 26.95 251.93 29.21 254.77 28.8 255.85 26.09 254.04 23.91"/><line class="cls-1" x1="255.45" y1="20.39" x2="254.04" y2="23.91"/><line class="cls-1" x1="248.85" y1="21.4" x2="251.22" y2="24.28"/><line class="cls-1" x1="246.41" y1="27.51" x2="250.15" y2="26.95"/><line class="cls-1" x1="250.54" y1="32.69" x2="251.93" y2="29.21"/><line class="cls-1" x1="257.14" y1="31.68" x2="254.79" y2="28.76"/><line class="cls-1" x1="259.58" y1="25.57" x2="255.85" y2="26.09"/><polyline class="cls-1" points="254.36 21 254.9 21.76 255.87 21.58"/><polyline class="cls-1" points="253.81 22.41 254.35 23.18 255.31 23"/><polyline class="cls-1" points="248.94 22.57 249.88 22.65 250.36 21.81"/><polyline class="cls-1" points="249.87 23.68 250.81 23.76 251.29 22.92"/><polyline class="cls-1" points="247.41 28.18 247.74 27.31 247.05 26.63"/><polyline class="cls-1" points="248.97 27.95 249.29 27.07 248.6 26.39"/><polyline class="cls-1" points="251.66 31.97 251.13 31.2 250.16 31.36"/><polyline class="cls-1" points="252.23 30.56 251.71 29.79 250.74 29.95"/><polyline class="cls-1" points="257.26 30.65 256.32 30.69 255.96 31.59"/><polyline class="cls-1" points="256.35 29.43 255.41 29.47 255.04 30.37"/><polyline class="cls-1" points="258.64 24.9 258.24 25.74 258.87 26.48"/><polyline class="cls-1" points="257.12 25.12 256.71 25.96 257.35 26.7"/></g></svg>