<svg xmlns="http://www.w3.org/2000/svg" viewBox="0 0 352.32 235.43"><defs><style>.cls-1{fill:none;stroke:#fff;stroke-miterlimit:10;}</style></defs><g id="Layer_2" data-name="Layer 2"><path class="cls-1" d="M269.19,48.08l-25.55-5.46-10.35-13S196,26.24,189.79,3c0,0-9.67,4.1-2.07,22.52,0,0-10.36-10.92-10.36-22.52,0,0-14.5,21.16,4.14,31.4,0,0-26.92-19.11-39.35,18.42,0,0,16.57-6.82,21.4-5.46,0,0-19.33,13.65-28.31,30.72,0,0-2.76,6.82-9.66,7.5,0,0,12.42,2.73,18.64-6.14,0,0-6.91,17.06-31.76,27.3,0,0,6.9,9.55,24.16,0,0,0-11,17.74-24.16,23.89,0,0-17.95,6.82-23.48,6.14,0,0,9.6,15.4,25.55,8.87,5.41-2.21,16.57-16.38,16.57-16.38s-46.95,51.19-20.71,81.22c0,0,35.9-86.68,42.8-102.38s-6.9,15.7-6.9,15.7-41.43,81.22,3.45,109.2c0,0-6.9-87.36,15.19-114.66,0,0-31.07,62.79,11,100.33,0,0,10-26.28,1-59.72,0,0-2.42-31.74,5.17-44.7,0,0-26.23,68.25,32.45,101,0,0-11.39-48.12-16.57-67.57,0,0,4.15,43,40.05,66.2,0,0,4.66-11.2,1.73-16-6.5-10.72-25.9-18.08-32.11-45.38,0,0,9.67,53.23,61.45,36.85,0,0-19.33-4.78-23.48-15a22.6,22.6,0,0,0,13.12-10.92s-18.3-1.63-29.69-15c-2.19-2.57-11.73-6.82-11.73-6.82S242.26,158,249.17,121.1c0,0-31.76,12.29-29.69-19.79,0,0,17.26-6.83,29.69,3.41L256.07,87s-7.59,7.5-22.78-3.42l2.76-16.37,20,4.77s6.91,2.73,5.53,8.87Z"/><path class="cls-1" d="M173.22,56.27S158,70.6,155.27,78.11"/><line class="cls-1" x1="149.74" y1="96.53" x2="137.31" y2="119.74"/><line class="cls-1" x1="200.15" y1="75.38" x2="189.79" y2="98.58"/><polygon class="cls-1" points="250.69 70.68 250.55 78.11 254.34 71.62 250.69 70.68"/><polygon class="cls-1" points="243.3 88.68 248.48 82.2 250.55 89.07 243.3 88.68"/></g></svg>