<svg xmlns="http://www.w3.org/2000/svg" viewBox="0 0 352.32 235.43"><defs><style>.cls-1{fill:none;stroke:#fff;stroke-miterlimit:10;}</style></defs><g id="Layer_2" data-name="Layer 2"><path class="cls-1" d="M311.48,120.53l40-44-65-28-14-30-68-18-68,33-42,3,13,13-30,1,16,13h-34l14,19-31,1,13,17-30-1,14,16-38,2,23,16,5,27h20l5,20,21,1,6,15,18,1,8,18,18-1,19,20,15-35,5,12,12-32,4,9,8-26,3,9s32-86,78,9c0,0,29-25,34-46l-13,5-42-34s-4-8,20-10c0,0,36,4,42,9Z"/><polygon class="cls-1" points="268.48 96.53 271.48 104.53 276.03 97.48 268.48 96.53"/><polygon class="cls-1" points="280.52 97.76 283.52 105.76 288.07 98.71 280.52 97.76"/><polygon class="cls-1" points="292.52 99.76 295.52 107.76 300.07 100.71 292.52 99.76"/><polygon class="cls-1" points="257.76 112.06 258.86 103.59 251.53 107.69 257.76 112.06"/><polygon class="cls-1" points="266.48 119.53 267.16 109.8 259.84 113.9 266.48 119.53"/><polygon class="cls-1" points="276.48 127.53 277.38 116.12 267.93 120.73 276.48 127.53"/><polygon class="cls-1" points="288.12 136.42 289.88 122.8 278.11 129.39 288.12 136.42"/><line class="cls-1" x1="344.14" y1="84.61" x2="340.94" y2="71.99"/></g></svg>