<svg xmlns="http://www.w3.org/2000/svg" viewBox="0 0 720 900"><defs><style>.cls-1{font-size:175.62px;}.cls-1,.cls-5,.cls-6{fill:#fff;}.cls-1,.cls-5,.cls-6,.cls-7{stroke:#fff;}.cls-1,.cls-6,.cls-7{stroke-miterlimit:10;}.cls-1,.cls-5{font-family:MyriadPro-Regular, Myriad Pro;}.cls-2{letter-spacing:0em;}.cls-3{letter-spacing:0em;}.cls-4{font-size:196.03px;}.cls-5{font-size:117.67px;}.cls-6,.cls-7{stroke-width:2px;}.cls-7{fill:none;}</style></defs><g id="Layer_2" data-name="Layer 2"><path d="M0,0H720V588s-7,68-80,115c0,0-102.62,68.29-140,85-40.92,18.29-102,31-140,112,0,0-55.58-78.24-120-104C192.9,777.16,82,710,64,695c0,0-64-59-64-94Z"/><text class="cls-1" transform="translate(32.65 311.22) scale(0.93 1)">G<tspan class="cls-2" x="113.45" y="0">A</tspan><tspan class="cls-3" x="220.22" y="0">ME </tspan><tspan class="cls-4" x="485.04" y="0" xml:space="preserve">   </tspan><tspan x="609.71" y="0"> </tspan><tspan x="0" y="210.74">BANNERS</tspan></text><text class="cls-5" transform="translate(492.36 290.58)">OF</text><line class="cls-6" x1="522.85" y1="217.6" x2="522.85" y2="284"/><line class="cls-6" x1="532.53" y1="217.6" x2="532.53" y2="284"/><line class="cls-6" x1="543.6" y1="220.37" x2="543.6" y2="286.77"/><line class="cls-7" x1="32.68" y1="369" x2="681.68" y2="369"/></g></svg>